<svg xmlns="http://www.w3.org/2000/svg" width="40" height="40" viewBox="0 0 40 40" fill="none">
<path opacity="0.21" fill-rule="evenodd" clip-rule="evenodd" d="M0 20V25C0 33.2843 6.71573 40 15 40H20H25C33.2843 40 40 33.2843 40 25V20V15C40 6.71573 33.2843 0 25 0H20H15C6.71573 0 0 6.71573 0 15V20Z" fill="#FEC53D"/>
<path fill-rule="evenodd" clip-rule="evenodd" d="M10 16.2113L18.6003 21.1767C18.6929 21.2301 18.79 21.2688 18.8889 21.2933V30.9234L10.6134 26.026C10.2332 25.801 10 25.392 10 24.9502V16.2113ZM29.9999 16.0791V24.9501C29.9999 25.3918 29.7667 25.8008 29.3865 26.0258L21.111 30.9233V21.2087C21.1312 21.1987 21.1511 21.1879 21.1709 21.1765L29.9999 16.0791Z" fill="#FEC53D"/>
<path opacity="0.499209" fill-rule="evenodd" clip-rule="evenodd" d="M10.27 13.8008C10.3751 13.6681 10.5077 13.556 10.6622 13.4737L19.4122 8.81324C19.7796 8.61759 20.2202 8.61759 20.5875 8.81324L29.3375 13.4737C29.4567 13.5371 29.5628 13.6183 29.6532 13.7129L20.0598 19.2517C19.9967 19.2881 19.9386 19.3298 19.8856 19.3759C19.8326 19.3298 19.7744 19.2881 19.7113 19.2517L10.27 13.8008Z" fill="#FEC53D"/>
</svg>
